<?xml version="1.0" encoding="UTF-8"?>
<svg width="1200pt" height="1200pt" version="1.1" viewBox="0 0 1200 1200" xmlns="http://www.w3.org/2000/svg">
 <g>
  <path d="m600 66.75c141.43 0 277.06 56.18 377.07 156.18s156.18 235.64 156.18 377.07-56.18 277.06-156.18 377.07-235.64 156.18-377.07 156.18-277.06-56.18-377.07-156.18-156.18-235.64-156.18-377.07 56.18-277.06 156.18-377.07 235.64-156.18 377.07-156.18m0-66.75c-159.13 0-311.74 63.215-424.27 175.73-112.52 112.52-175.73 265.14-175.73 424.27s63.215 311.74 175.73 424.27c112.52 112.52 265.14 175.73 424.27 175.73s311.74-63.215 424.27-175.73c112.52-112.52 175.73-265.14 175.73-424.27 0-105.32-27.723-208.79-80.383-300-52.664-91.211-128.41-166.95-219.62-219.62-91.211-52.66-194.68-80.383-300-80.383z"/>
  <path d="m600 729c-63.355 0-124.11-25.168-168.91-69.965s-69.965-105.55-69.965-168.91 25.168-124.11 69.965-168.91 105.55-69.965 168.91-69.965 124.11 25.168 168.91 69.965 69.965 105.55 69.965 168.91c-0.050781 63.34-25.234 124.07-70.02 168.86-44.789 44.785-105.52 69.969-168.86 70.02zm0-410.25c-45.699 0-89.527 18.156-121.84 50.469-32.312 32.316-50.469 76.145-50.469 121.84s18.156 89.527 50.469 121.84c32.316 32.312 76.145 50.469 121.84 50.469s89.527-18.156 121.84-50.469c32.312-32.316 50.469-76.145 50.469-121.84-0.050781-45.684-18.219-89.484-50.523-121.79-32.305-32.305-76.105-50.473-121.79-50.523z"/>
  <path d="m924.19 982.12c-9.8242 0.007812-19.152-4.3125-25.5-11.812-37.516-41.953-83.586-75.375-135.11-98.016s-107.3-33.973-163.58-33.234c-56.273-0.73828-112.05 10.594-163.58 33.234s-97.594 56.062-135.11 98.016c-7.7031 9.1094-19.684 13.418-31.422 11.301-11.742-2.1133-21.465-10.336-25.5-21.562-4.0391-11.227-1.7812-23.754 5.9219-32.863 43.863-49.215 97.781-88.441 158.11-115.03s125.66-39.922 191.58-39.094c65.922-0.82812 131.25 12.504 191.58 39.094s114.25 65.816 158.11 115.03c5.5156 6.5156 8.3242 14.895 7.8477 23.418-0.47266 8.5195-4.1953 16.535-10.398 22.398-6.1992 5.8633-14.414 9.1289-22.949 9.1211z"/>
 </g>
</svg>
